<svg width="469" height="550" viewBox="0 0 469 550" fill="none" xmlns="http://www.w3.org/2000/svg">
<path fill-rule="evenodd" clip-rule="evenodd" d="M55.625 29.3125V108.188C55.625 122.719 43.8445 134.5 29.3125 134.5C14.7805 134.5 3 122.719 3 108.188V29.3125C3 14.7805 14.7805 3 29.3125 3C43.8445 3 55.625 14.7805 55.625 29.3125ZM0 29.3125C0 13.1237 13.1237 0 29.3125 0C45.5013 0 58.625 13.1237 58.625 29.3125C58.625 13.1237 71.7487 0 87.9375 0C104.126 0 117.25 13.1237 117.25 29.3125C117.25 13.1237 130.374 0 146.562 0C162.751 0 175.875 13.1237 175.875 29.3125C175.875 13.1237 188.999 0 205.188 0C221.376 0 234.5 13.1237 234.5 29.3125C234.5 13.1237 247.624 0 263.812 0C280.001 0 293.125 13.1237 293.125 29.3125C293.125 13.1237 306.249 0 322.438 0C338.626 0 351.75 13.1237 351.75 29.3125C351.75 13.1237 364.874 0 381.062 0C397.251 0 410.375 13.1237 410.375 29.3125C410.375 13.1237 423.499 0 439.688 0C455.876 0 469 13.1237 469 29.3125V108.188C469 124.376 455.876 137.5 439.688 137.5C423.499 137.5 410.375 124.376 410.375 108.188C410.375 124.376 397.251 137.5 381.062 137.5C364.874 137.5 351.75 124.376 351.75 108.188C351.75 124.376 338.626 137.5 322.438 137.5C306.249 137.5 293.125 124.376 293.125 108.188C293.125 124.376 280.001 137.5 263.812 137.5C247.624 137.5 234.5 124.376 234.5 108.188C234.5 124.376 221.376 137.5 205.188 137.5C188.999 137.5 175.875 124.376 175.875 108.188C175.875 124.376 162.751 137.5 146.562 137.5C130.374 137.5 117.25 124.376 117.25 108.188C117.25 124.376 104.126 137.5 87.9375 137.5C71.7487 137.5 58.625 124.376 58.625 108.188C58.625 124.376 45.5013 137.5 29.3125 137.5C13.1237 137.5 0 124.376 0 108.188V29.3125ZM29.3125 275C13.1237 275 0 261.876 0 245.688V166.812C0 150.624 13.1237 137.5 29.3125 137.5C45.5013 137.5 58.625 150.624 58.625 166.812C58.625 150.624 71.7487 137.5 87.9375 137.5C104.126 137.5 117.25 150.624 117.25 166.812C117.25 150.624 130.374 137.5 146.562 137.5C162.751 137.5 175.875 150.624 175.875 166.812C175.875 150.624 188.999 137.5 205.188 137.5C221.376 137.5 234.5 150.624 234.5 166.812C234.5 150.624 247.624 137.5 263.812 137.5C280.001 137.5 293.125 150.624 293.125 166.812C293.125 150.624 306.249 137.5 322.438 137.5C338.626 137.5 351.75 150.624 351.75 166.812C351.75 150.624 364.874 137.5 381.062 137.5C397.251 137.5 410.375 150.624 410.375 166.812C410.375 150.624 423.499 137.5 439.688 137.5C455.876 137.5 469 150.624 469 166.812V245.688C469 261.876 455.876 275 439.688 275C423.499 275 410.375 261.876 410.375 245.688C410.375 261.876 397.251 275 381.062 275C364.874 275 351.75 261.876 351.75 245.688C351.75 261.876 338.626 275 322.438 275C306.249 275 293.125 261.876 293.125 245.688C293.125 261.876 280.001 275 263.812 275C247.624 275 234.5 261.876 234.5 245.688C234.5 261.876 221.376 275 205.188 275C188.999 275 175.875 261.876 175.875 245.688C175.875 261.876 162.751 275 146.562 275C130.374 275 117.25 261.876 117.25 245.688C117.25 261.876 104.126 275 87.9375 275C71.7487 275 58.625 261.876 58.625 245.688C58.625 261.876 45.5013 275 29.3125 275ZM29.3125 412.5C13.1237 412.5 0 399.376 0 383.188V304.312C0 288.124 13.1237 275 29.3125 275C45.5013 275 58.625 288.124 58.625 304.312C58.625 288.124 71.7487 275 87.9375 275C104.126 275 117.25 288.124 117.25 304.312C117.25 288.124 130.374 275 146.562 275C162.751 275 175.875 288.124 175.875 304.312C175.875 288.124 188.999 275 205.188 275C221.376 275 234.5 288.124 234.5 304.312C234.5 288.124 247.624 275 263.812 275C280.001 275 293.125 288.124 293.125 304.312C293.125 288.124 306.249 275 322.438 275C338.626 275 351.75 288.124 351.75 304.312C351.75 288.124 364.874 275 381.062 275C397.251 275 410.375 288.124 410.375 304.312C410.375 288.124 423.499 275 439.688 275C455.876 275 469 288.124 469 304.312V383.188C469 399.376 455.876 412.5 439.688 412.5C423.499 412.5 410.375 399.376 410.375 383.188C410.375 399.376 397.251 412.5 381.062 412.5C364.874 412.5 351.75 399.376 351.75 383.188C351.75 399.376 338.626 412.5 322.438 412.5C306.249 412.5 293.125 399.376 293.125 383.188C293.125 399.376 280.001 412.5 263.812 412.5C247.624 412.5 234.5 399.376 234.5 383.188C234.5 399.376 221.376 412.5 205.188 412.5C188.999 412.5 175.875 399.376 175.875 383.188C175.875 399.376 162.751 412.5 146.562 412.5C130.374 412.5 117.25 399.376 117.25 383.188C117.25 399.376 104.126 412.5 87.9375 412.5C71.7487 412.5 58.625 399.376 58.625 383.188C58.625 399.376 45.5013 412.5 29.3125 412.5ZM29.3125 412.5C45.5013 412.5 58.625 425.624 58.625 441.812C58.625 425.624 71.7487 412.5 87.9375 412.5C104.126 412.5 117.25 425.624 117.25 441.812C117.25 425.624 130.374 412.5 146.562 412.5C162.751 412.5 175.875 425.624 175.875 441.812C175.875 425.624 188.999 412.5 205.188 412.5C221.376 412.5 234.5 425.624 234.5 441.812C234.5 425.624 247.624 412.5 263.812 412.5C280.001 412.5 293.125 425.624 293.125 441.812C293.125 425.624 306.249 412.5 322.438 412.5C338.626 412.5 351.75 425.624 351.75 441.812C351.75 425.624 364.874 412.5 381.062 412.5C397.251 412.5 410.375 425.624 410.375 441.812C410.375 425.624 423.499 412.5 439.688 412.5C455.876 412.5 469 425.624 469 441.812V520.688C469 536.876 455.876 550 439.688 550C423.499 550 410.375 536.876 410.375 520.688C410.375 536.876 397.251 550 381.062 550C364.874 550 351.75 536.876 351.75 520.688C351.75 536.876 338.626 550 322.438 550C306.249 550 293.125 536.876 293.125 520.688C293.125 536.876 280.001 550 263.812 550C247.624 550 234.5 536.876 234.5 520.688C234.5 536.876 221.376 550 205.188 550C188.999 550 175.875 536.876 175.875 520.688C175.875 536.876 162.751 550 146.562 550C130.374 550 117.25 536.876 117.25 520.688C117.25 536.876 104.126 550 87.9375 550C71.7487 550 58.625 536.876 58.625 520.688C58.625 536.876 45.5013 550 29.3125 550C13.1237 550 0 536.876 0 520.688V441.812C0 425.624 13.1237 412.5 29.3125 412.5ZM55.625 166.812V245.688C55.625 260.219 43.8445 272 29.3125 272C14.7805 272 3 260.219 3 245.688V166.812C3 152.281 14.7805 140.5 29.3125 140.5C43.8445 140.5 55.625 152.281 55.625 166.812ZM55.625 441.812V520.688C55.625 535.219 43.8445 547 29.3125 547C14.7805 547 3 535.219 3 520.688V441.812C3 427.281 14.7805 415.5 29.3125 415.5C43.8445 415.5 55.625 427.281 55.625 441.812ZM55.625 383.188V304.312C55.625 289.781 43.8445 278 29.3125 278C14.7805 278 3 289.781 3 304.312V383.188C3 397.719 14.7805 409.5 29.3125 409.5C43.8445 409.5 55.625 397.719 55.625 383.188ZM114.25 520.688V441.812C114.25 427.281 102.469 415.5 87.9375 415.5C73.4055 415.5 61.625 427.281 61.625 441.812V520.688C61.625 535.219 73.4055 547 87.9375 547C102.469 547 114.25 535.219 114.25 520.688ZM114.25 166.812V245.688C114.25 260.219 102.469 272 87.9375 272C73.4055 272 61.625 260.219 61.625 245.688V166.812C61.625 152.281 73.4055 140.5 87.9375 140.5C102.469 140.5 114.25 152.281 114.25 166.812ZM114.25 383.188V304.312C114.25 289.781 102.469 278 87.9375 278C73.4055 278 61.625 289.781 61.625 304.312V383.188C61.625 397.719 73.4055 409.5 87.9375 409.5C102.469 409.5 114.25 397.719 114.25 383.188ZM114.25 29.3125V108.188C114.25 122.719 102.469 134.5 87.9375 134.5C73.4055 134.5 61.625 122.719 61.625 108.188V29.3125C61.625 14.7805 73.4055 3 87.9375 3C102.469 3 114.25 14.7805 114.25 29.3125ZM172.875 520.688V441.812C172.875 427.281 161.094 415.5 146.562 415.5C132.031 415.5 120.25 427.281 120.25 441.812V520.688C120.25 535.219 132.031 547 146.562 547C161.094 547 172.875 535.219 172.875 520.688ZM172.875 166.812V245.688C172.875 260.219 161.094 272 146.562 272C132.031 272 120.25 260.219 120.25 245.688V166.812C120.25 152.281 132.031 140.5 146.562 140.5C161.094 140.5 172.875 152.281 172.875 166.812ZM172.875 383.188V304.312C172.875 289.781 161.094 278 146.562 278C132.031 278 120.25 289.781 120.25 304.312V383.188C120.25 397.719 132.031 409.5 146.562 409.5C161.094 409.5 172.875 397.719 172.875 383.188ZM172.875 29.3125V108.188C172.875 122.719 161.094 134.5 146.562 134.5C132.031 134.5 120.25 122.719 120.25 108.188V29.3125C120.25 14.7805 132.031 3 146.562 3C161.094 3 172.875 14.7805 172.875 29.3125ZM231.5 520.688V441.812C231.5 427.281 219.719 415.5 205.188 415.5C190.656 415.5 178.875 427.281 178.875 441.812V520.688C178.875 535.219 190.656 547 205.188 547C219.719 547 231.5 535.219 231.5 520.688ZM231.5 166.812V245.688C231.5 260.219 219.719 272 205.188 272C190.656 272 178.875 260.219 178.875 245.688V166.812C178.875 152.281 190.656 140.5 205.188 140.5C219.719 140.5 231.5 152.281 231.5 166.812ZM231.5 383.188V304.312C231.5 289.781 219.719 278 205.188 278C190.656 278 178.875 289.781 178.875 304.312V383.188C178.875 397.719 190.656 409.5 205.188 409.5C219.719 409.5 231.5 397.719 231.5 383.188ZM231.5 29.3125V108.188C231.5 122.719 219.719 134.5 205.188 134.5C190.656 134.5 178.875 122.719 178.875 108.188V29.3125C178.875 14.7805 190.656 3 205.188 3C219.719 3 231.5 14.7805 231.5 29.3125ZM290.125 520.688V441.812C290.125 427.281 278.344 415.5 263.812 415.5C249.281 415.5 237.5 427.281 237.5 441.812V520.688C237.5 535.219 249.281 547 263.812 547C278.344 547 290.125 535.219 290.125 520.688ZM290.125 166.812V245.688C290.125 260.219 278.344 272 263.812 272C249.281 272 237.5 260.219 237.5 245.688V166.812C237.5 152.281 249.281 140.5 263.812 140.5C278.344 140.5 290.125 152.281 290.125 166.812ZM290.125 383.188V304.312C290.125 289.781 278.344 278 263.812 278C249.281 278 237.5 289.781 237.5 304.312V383.188C237.5 397.719 249.281 409.5 263.812 409.5C278.344 409.5 290.125 397.719 290.125 383.188ZM290.125 29.3125V108.188C290.125 122.719 278.344 134.5 263.812 134.5C249.281 134.5 237.5 122.719 237.5 108.188V29.3125C237.5 14.7805 249.281 3 263.812 3C278.344 3 290.125 14.7805 290.125 29.3125ZM348.75 520.688V441.812C348.75 427.281 336.969 415.5 322.438 415.5C307.906 415.5 296.125 427.281 296.125 441.812V520.688C296.125 535.219 307.906 547 322.438 547C336.969 547 348.75 535.219 348.75 520.688ZM348.75 166.812V245.688C348.75 260.219 336.969 272 322.438 272C307.906 272 296.125 260.219 296.125 245.688V166.812C296.125 152.281 307.906 140.5 322.438 140.5C336.969 140.5 348.75 152.281 348.75 166.812ZM348.75 383.188V304.312C348.75 289.781 336.969 278 322.438 278C307.906 278 296.125 289.781 296.125 304.312V383.188C296.125 397.719 307.906 409.5 322.438 409.5C336.969 409.5 348.75 397.719 348.75 383.188ZM348.75 29.3125V108.188C348.75 122.719 336.969 134.5 322.438 134.5C307.906 134.5 296.125 122.719 296.125 108.188V29.3125C296.125 14.7805 307.906 3 322.438 3C336.969 3 348.75 14.7805 348.75 29.3125ZM407.375 520.688V441.812C407.375 427.281 395.594 415.5 381.062 415.5C366.531 415.5 354.75 427.281 354.75 441.812V520.688C354.75 535.219 366.531 547 381.062 547C395.594 547 407.375 535.219 407.375 520.688ZM407.375 166.812V245.688C407.375 260.219 395.594 272 381.062 272C366.531 272 354.75 260.219 354.75 245.688V166.812C354.75 152.281 366.531 140.5 381.062 140.5C395.594 140.5 407.375 152.281 407.375 166.812ZM407.375 383.188V304.312C407.375 289.781 395.594 278 381.062 278C366.531 278 354.75 289.781 354.75 304.312V383.188C354.75 397.719 366.531 409.5 381.062 409.5C395.594 409.5 407.375 397.719 407.375 383.188ZM407.375 29.3125V108.188C407.375 122.719 395.594 134.5 381.062 134.5C366.531 134.5 354.75 122.719 354.75 108.188V29.3125C354.75 14.7805 366.531 3 381.062 3C395.594 3 407.375 14.7805 407.375 29.3125ZM466 520.688V441.812C466 427.281 454.219 415.5 439.688 415.5C425.156 415.5 413.375 427.281 413.375 441.812V520.688C413.375 535.219 425.156 547 439.688 547C454.219 547 466 535.219 466 520.688ZM466 166.812V245.688C466 260.219 454.219 272 439.688 272C425.156 272 413.375 260.219 413.375 245.688V166.812C413.375 152.281 425.156 140.5 439.688 140.5C454.219 140.5 466 152.281 466 166.812ZM466 383.188V304.312C466 289.781 454.219 278 439.688 278C425.156 278 413.375 289.781 413.375 304.312V383.188C413.375 397.719 425.156 409.5 439.688 409.5C454.219 409.5 466 397.719 466 383.188ZM466 29.3125V108.188C466 122.719 454.219 134.5 439.688 134.5C425.156 134.5 413.375 122.719 413.375 108.188V29.3125C413.375 14.7805 425.156 3 439.688 3C454.219 3 466 14.7805 466 29.3125Z" fill="url(#paint0_linear_399_1104)" fill-opacity="0.34"/>
<defs>
<linearGradient id="paint0_linear_399_1104" x1="234.5" y1="0" x2="234.5" y2="550" gradientUnits="userSpaceOnUse">
<stop stop-color="#4B4BF4"/>
<stop offset="0.0262345" stop-color="white"/>
<stop offset="0.285" stop-color="#4755E9"/>
<stop offset="0.63" stop-color="white"/>
<stop offset="0.805" stop-color="#4755E9"/>
<stop offset="1" stop-color="#6073EF"/>
</linearGradient>
</defs>
</svg>
