<svg width="80" height="80" viewBox="0 0 80 80" fill="none" xmlns="http://www.w3.org/2000/svg">
<circle cx="40" cy="40" r="40" fill="#3270FF"/>
<path d="M21.666 54.9998H28.3327V34.9998H21.666V54.9998ZM58.3327 36.6665C58.3327 34.8332 56.8327 33.3332 54.9993 33.3332H44.4827L46.066 25.7165L46.116 25.1832C46.116 24.4998 45.8327 23.8665 45.3827 23.4165L43.616 21.6665L32.6493 32.6498C32.0327 33.2498 31.666 34.0832 31.666 34.9998V51.6665C31.666 53.4998 33.166 54.9998 34.9993 54.9998H49.9993C51.3827 54.9998 52.566 54.1665 53.066 52.9665L58.0993 41.2165C58.2493 40.8332 58.3327 40.4332 58.3327 39.9998V36.8165L58.316 36.7998L58.3327 36.6665Z" fill="white"/>
</svg>
