<svg width="19" height="20" viewBox="0 0 19 20" fill="none" xmlns="http://www.w3.org/2000/svg">
<path d="M9.11266 13.1372C8.97908 13.2755 8.90517 13.4608 8.90684 13.653C8.90851 13.8453 8.98563 14.0292 9.1216 14.1652C9.25756 14.3012 9.44149 14.3783 9.63377 14.38C9.82605 14.3816 10.0113 14.3077 10.1496 14.1741L14.0612 10.2479C14.0953 10.2138 14.1224 10.1734 14.1409 10.1288C14.1594 10.0843 14.1689 10.0365 14.1689 9.98827C14.1689 9.94005 14.1594 9.89229 14.1409 9.84774C14.1224 9.8032 14.0953 9.76273 14.0612 9.72867L10.1496 5.80387C10.0113 5.67029 9.82605 5.59638 9.63377 5.59805C9.44149 5.59972 9.25756 5.67684 9.1216 5.81281C8.98563 5.94877 8.90851 6.1327 8.90684 6.32498C8.90517 6.51726 8.97908 6.7025 9.11266 6.84081L11.5268 9.26667H1.70013C1.50564 9.26667 1.31911 9.34394 1.18159 9.48146C1.04406 9.61899 0.966797 9.80552 0.966797 10C0.966797 10.1945 1.04406 10.381 1.18159 10.5186C1.31911 10.6561 1.50564 10.7333 1.70013 10.7333H11.5268L9.11266 13.1372ZM17.1001 0.466675H7.5668C7.3723 0.466675 7.18578 0.543936 7.04825 0.681463C6.91073 0.81899 6.83346 1.00552 6.83346 1.20001C6.83346 1.3945 6.91073 1.58103 7.04825 1.71855C7.18578 1.85608 7.3723 1.93334 7.5668 1.93334H16.3668C16.5613 1.93334 16.7478 2.0106 16.8853 2.14813C17.0229 2.28566 17.1001 2.47218 17.1001 2.66667V17.3333C17.1001 17.5278 17.0229 17.7144 16.8853 17.8519C16.7478 17.9894 16.5613 18.0667 16.3668 18.0667H7.20013C7.00564 18.0667 6.81911 18.1439 6.68159 18.2815C6.54406 18.419 6.4668 18.6055 6.4668 18.8C6.4668 18.9945 6.54406 19.181 6.68159 19.3186C6.81911 19.4561 7.00564 19.5333 7.20013 19.5333H17.1001C17.4891 19.5333 17.8622 19.3788 18.1372 19.1038C18.4123 18.8287 18.5668 18.4557 18.5668 18.0667V1.93334C18.5668 1.54436 18.4123 1.1713 18.1372 0.896251C17.8622 0.621198 17.4891 0.466675 17.1001 0.466675Z" fill="white"/>
</svg>
