<svg width="36" height="22" viewBox="0 0 36 22" fill="none" xmlns="http://www.w3.org/2000/svg">
<path d="M18.5885 13.9875C20.0233 7.22268 23.8212 3.2364 27.0548 1.27315C28.72 0.262114 30.7802 0.610981 32.4141 1.67183C34.5988 3.09025 35.752 5.6509 35.4542 8.23856C35.2595 9.92968 35.0622 11.8349 34.8847 13.8118C34.4745 18.3814 30.704 22 26.116 22C21.5925 22 17.6499 18.4126 18.5885 13.9875Z" fill="#4C30C7"/>
<path d="M0.58849 13.9875C2.02331 7.22268 5.8212 3.2364 9.0548 1.27315C10.72 0.262114 12.7802 0.610981 14.4141 1.67183C16.5988 3.09025 17.752 5.6509 17.4542 8.23856C17.2595 9.92968 17.0622 11.8349 16.8847 13.8118C16.4745 18.3814 12.704 22 8.11604 22C3.59251 22 -0.350068 18.4126 0.58849 13.9875Z" fill="#4C30C7"/>
</svg>
