<svg width="149" height="72" viewBox="0 0 149 72" fill="none" xmlns="http://www.w3.org/2000/svg">
<path d="M73.9215 36.4C73.9215 39.6 73.6215 42.6 72.9215 45.5H73.0215C69.3215 61.5 55.7215 71.7 37.0215 71.7C36.9215 71.7 36.9215 71.7 36.9215 71.7C18.2215 71.7 4.62148 61.5 0.921484 45.5H1.02148C0.321484 42.6 0.0214845 39.6 0.0214845 36.4C0.0214845 33.5 0.321484 30.6 0.821485 28C0.921484 27.9 0.921484 27.8 0.921484 27.6V27.7C0.921484 27.5 1.02148 27.3 1.02148 27.1C4.62148 11.1 18.3215 0.799997 36.9215 0.799997H37.0215C55.6215 0.799997 69.3215 11.1 72.9215 27.1C72.9215 27.3 73.0215 27.5 73.0215 27.7V27.6C73.0215 27.8 73.0215 27.9 73.1215 28C73.6215 30.6 73.9215 33.5 73.9215 36.4ZM29.4215 27.1V45.5L29.5215 53.7H44.4215L44.5215 45.5V27.1L44.4215 18.8H29.5215L29.4215 27.1ZM1.02148 27.1C1.02148 27.3 0.921484 27.5 0.921484 27.6L1.02148 27.1ZM72.9215 27.1L73.0215 27.6C73.0215 27.5 72.9215 27.3 72.9215 27.1Z" fill="#4C30C7"/>
<path d="M128.304 29C142.104 29 149.004 36.9 149.004 47.5C149.004 63.4 133.504 71.8 114.804 71.8H114.604C96.1043 71.8 80.9043 60.3 80.9043 45.7H107.904V52.2H119.804V42.2H104.504V42.1H101.104C90.2043 41.9 81.4043 35.7 81.4043 24.6C81.4043 10 96.6043 0.799997 114.604 0.799997H114.804C132.604 0.799997 146.804 12.5 146.804 25.5H119.804V20.4H107.904V29H128.304Z" fill="#6AB7FF"/>
</svg>
